<svg width="114" height="32" viewBox="0 0 114 32" fill="none" xmlns="http://www.w3.org/2000/svg">
<rect width="31.9989" height="32" rx="4" fill="#1B00DF"/>
<path d="M11.7582 17.4599H6.92272V26.2568H4V6H6.92272V14.6819H11.5531L13.8385 6H16.9644L14.3886 14.6819C14.3886 14.6819 14.342 14.9069 14.2627 15.228L25.686 19.1131L25.1994 22.0328L11.7582 17.4599Z" fill="white"/>
<path d="M25.3594 22.0603L25.7043 19.8205L25.735 19.6084C25.8946 18.5142 26.9075 17.7541 28.0026 17.9067L27.4862 21.4855C27.3227 22.7898 26.0432 22.768 25.3842 22.0931C25.3752 22.0831 25.3673 22.0722 25.3594 22.0613V22.0603Z" fill="#FFB800"/>
<path d="M38.6325 14V12.9911H38.7981C39.0993 12.9911 39.3453 12.9559 39.536 12.8856C39.7368 12.8154 39.8372 12.6698 39.8372 12.4489V4.85929C39.8372 4.63843 39.7368 4.49286 39.536 4.42259C39.3453 4.35231 39.0993 4.31718 38.7981 4.31718H38.6325V3.30823H43.4362V4.31718H43.2856C43.115 4.31718 42.9443 4.3222 42.7736 4.33223C42.603 4.34227 42.4574 4.35733 42.3369 4.37741C42.2265 4.39749 42.1713 4.42761 42.1713 4.46776V12.8405C42.1713 12.8706 42.2215 12.9007 42.3219 12.9308C42.4323 12.9509 42.5628 12.966 42.7134 12.976C42.874 12.986 43.0246 12.9911 43.1652 12.9911H43.3007V14H38.6325ZM44.6861 14V12.9911H44.8066C44.9672 12.9911 45.1228 12.986 45.2734 12.976C45.434 12.966 45.5645 12.9509 45.6649 12.9308C45.7754 12.9007 45.8306 12.8706 45.8306 12.8405L42.6833 8.83482V8.47341L46.4631 4.46776C46.4631 4.42761 46.4028 4.39749 46.2824 4.37741C46.1619 4.35733 46.0113 4.34227 45.8306 4.33223C45.6499 4.3222 45.4742 4.31718 45.3035 4.31718H45.1379V3.30823H49.1285V4.31718H48.7972C48.6365 4.31718 48.486 4.33223 48.3454 4.36235C48.2149 4.39247 48.0944 4.44267 47.984 4.51294C47.8736 4.57318 47.7581 4.66353 47.6376 4.784L43.9633 8.66918L44.4301 7.46447L48.4207 12.5694C48.5111 12.6798 48.6014 12.7702 48.6918 12.8405C48.7922 12.9007 48.9026 12.9409 49.0231 12.9609C49.1435 12.981 49.2791 12.9911 49.4296 12.9911H49.6254V14H44.6861ZM51.8088 12.4489V4.85929C51.8088 4.63843 51.7084 4.49286 51.5076 4.42259C51.3169 4.35231 51.0709 4.31718 50.7698 4.31718H50.5589V3.30823H55.4229V4.31718H55.1971C54.8959 4.31718 54.6449 4.35231 54.4441 4.42259C54.2534 4.49286 54.158 4.63843 54.158 4.85929V12.4489C54.158 12.6698 54.2534 12.8154 54.4441 12.8856C54.6449 12.9559 54.8959 12.9911 55.1971 12.9911H55.4229V14H50.5589V12.9911H50.7698C51.0709 12.9911 51.3169 12.9559 51.5076 12.8856C51.7084 12.8154 51.8088 12.6698 51.8088 12.4489ZM62.1426 4.24188C61.6808 4.24188 61.2692 4.33725 60.9078 4.528C60.5464 4.71874 60.2351 4.99984 59.9741 5.37129C59.7231 5.74274 59.5324 6.20455 59.4019 6.75671C59.2714 7.29882 59.2061 7.93129 59.2061 8.65412C59.2061 9.38698 59.2714 10.0295 59.4019 10.5816C59.5424 11.1338 59.7382 11.5956 59.9892 11.9671C60.2502 12.3285 60.5765 12.6045 60.968 12.7953C61.3595 12.976 61.8113 13.0664 62.3233 13.0664C62.9156 13.0664 63.4176 12.9409 63.8292 12.6899C64.2508 12.4389 64.5972 12.0925 64.8682 11.6508C65.1393 11.2091 65.3501 10.7071 65.5007 10.1449L66.5699 10.5967C66.3791 11.3296 66.088 11.9721 65.6965 12.5242C65.3049 13.0664 64.808 13.488 64.2056 13.7892C63.6033 14.0904 62.8905 14.2409 62.0673 14.2409C61.2742 14.2409 60.5514 14.1155 59.8988 13.8645C59.2563 13.6135 58.6941 13.2471 58.2122 12.7652C57.7404 12.2833 57.374 11.696 57.1129 11.0033C56.862 10.3106 56.7365 9.52753 56.7365 8.65412C56.7365 7.77067 56.867 6.98761 57.128 6.30494C57.3991 5.61223 57.7705 5.02494 58.2424 4.54306C58.7142 4.06118 59.2613 3.69474 59.8838 3.44376C60.5062 3.19278 61.1788 3.06729 61.9016 3.06729C62.6245 3.06729 63.2318 3.19278 63.7238 3.44376C64.2157 3.69474 64.6122 4.05616 64.9134 4.528C65.2146 4.9898 65.4304 5.54698 65.5609 6.19953L64.9586 5.82306L65.2296 3.248H66.3892V6.81694H65.0489C64.8984 6.2949 64.6925 5.84314 64.4315 5.46165C64.1705 5.07012 63.8543 4.76894 63.4828 4.55812C63.1114 4.34729 62.6646 4.24188 62.1426 4.24188ZM67.8384 14V12.9911H68.004C68.3052 12.9911 68.5511 12.9559 68.7419 12.8856C68.9427 12.8154 69.0431 12.6698 69.0431 12.4489V4.85929C69.0431 4.63843 68.9427 4.49286 68.7419 4.42259C68.5511 4.35231 68.3052 4.31718 68.004 4.31718H67.8384V3.30823H72.6421V4.31718H72.4915C72.3209 4.31718 72.1502 4.3222 71.9795 4.33223C71.8089 4.34227 71.6633 4.35733 71.5428 4.37741C71.4324 4.39749 71.3772 4.42761 71.3772 4.46776V12.8405C71.3772 12.8706 71.4274 12.9007 71.5278 12.9308C71.6382 12.9509 71.7687 12.966 71.9193 12.976C72.0799 12.986 72.2305 12.9911 72.3711 12.9911H72.5066V14H67.8384ZM73.892 14V12.9911H74.0125C74.1731 12.9911 74.3287 12.986 74.4793 12.976C74.6399 12.966 74.7704 12.9509 74.8708 12.9308C74.9813 12.9007 75.0365 12.8706 75.0365 12.8405L71.8892 8.83482V8.47341L75.6689 4.46776C75.6689 4.42761 75.6087 4.39749 75.4882 4.37741C75.3678 4.35733 75.2172 4.34227 75.0365 4.33223C74.8558 4.3222 74.6801 4.31718 74.5094 4.31718H74.3438V3.30823H78.3344V4.31718H78.0031C77.8424 4.31718 77.6918 4.33223 77.5513 4.36235C77.4208 4.39247 77.3003 4.44267 77.1899 4.51294C77.0795 4.57318 76.964 4.66353 76.8435 4.784L73.1692 8.66918L73.636 7.46447L77.6266 12.5694C77.7169 12.6798 77.8073 12.7702 77.8976 12.8405C77.998 12.9007 78.1085 12.9409 78.2289 12.9609C78.3494 12.981 78.4849 12.9911 78.6355 12.9911H78.8313V14H73.892Z" fill="#1B00DF"/>
<path d="M43.2405 27.1115C43.6722 27.1115 44.0285 27.0613 44.3096 26.9609C44.6008 26.8505 44.8166 26.6798 44.9572 26.4489C45.0977 26.218 45.168 25.9169 45.168 25.5454C45.168 25.2141 45.0927 24.9431 44.9421 24.7322C44.8016 24.5114 44.6008 24.3307 44.3398 24.1901C44.0787 24.0395 43.7675 23.914 43.4061 23.8136C43.0547 23.7032 42.6733 23.5928 42.2616 23.4824C41.83 23.3719 41.4133 23.2414 41.0118 23.0908C40.6202 22.9402 40.2689 22.7445 39.9576 22.5035C39.6464 22.2525 39.4005 21.9363 39.2198 21.5548C39.0491 21.1733 38.9638 20.6965 38.9638 20.1242C38.9638 19.4717 39.1093 18.9195 39.4005 18.4678C39.7016 18.006 40.1183 17.6596 40.6504 17.4287C41.1824 17.1878 41.7998 17.0673 42.5026 17.0673C43.0949 17.0673 43.6019 17.1526 44.0235 17.3233C44.4552 17.4839 44.8166 17.76 45.1078 18.1515C45.3989 18.533 45.6248 19.045 45.7854 19.6875L45.2433 19.3261L45.4993 17.248H46.5835V20.2598H45.3487C45.2182 19.818 45.0275 19.4416 44.7765 19.1304C44.5255 18.8191 44.2243 18.5832 43.8729 18.4226C43.5216 18.2519 43.13 18.1666 42.6984 18.1666C42.2968 18.1666 41.9655 18.2268 41.7045 18.3473C41.4435 18.4577 41.2477 18.6234 41.1172 18.8442C40.9967 19.0551 40.9365 19.3111 40.9365 19.6122C40.9365 19.9235 41.0067 20.1795 41.1473 20.3802C41.2878 20.571 41.4786 20.7316 41.7195 20.8621C41.9705 20.9826 42.2616 21.093 42.5929 21.1934C42.9343 21.2838 43.3057 21.3791 43.7073 21.4795C44.1591 21.59 44.5907 21.7205 45.0024 21.8711C45.424 22.0216 45.8005 22.2174 46.1318 22.4584C46.4731 22.6993 46.7391 23.0105 46.9299 23.392C47.1307 23.7735 47.2311 24.2504 47.2311 24.8226C47.2311 25.5655 47.0704 26.1929 46.7492 26.7049C46.438 27.2069 45.9912 27.5884 45.4089 27.8494C44.8367 28.1104 44.1641 28.2409 43.3911 28.2409C42.7385 28.2409 42.1462 28.1456 41.6141 27.9548C41.082 27.7641 40.6303 27.4478 40.2588 27.0061C39.8974 26.5644 39.6314 25.962 39.4607 25.1991L40.048 25.6056L39.792 28.0301H38.6626V24.5515H39.9727C40.1333 25.1238 40.3693 25.6006 40.6805 25.9821C41.0017 26.3636 41.3782 26.6497 41.8099 26.8405C42.2416 27.0212 42.7184 27.1115 43.2405 27.1115ZM53.8338 18.2419C53.372 18.2419 52.9604 18.3373 52.5989 18.528C52.2375 18.7187 51.9263 18.9998 51.6653 19.3713C51.4143 19.7427 51.2236 20.2045 51.0931 20.7567C50.9625 21.2988 50.8973 21.9313 50.8973 22.6541C50.8973 23.387 50.9625 24.0295 51.0931 24.5816C51.2336 25.1338 51.4294 25.5956 51.6804 25.9671C51.9414 26.3285 52.2676 26.6045 52.6592 26.7953C53.0507 26.976 53.5025 27.0664 54.0145 27.0664C54.6068 27.0664 55.1087 26.9409 55.5204 26.6899C55.942 26.4389 56.2884 26.0925 56.5594 25.6508C56.8305 25.2091 57.0413 24.7071 57.1919 24.1449L58.2611 24.5967C58.0703 25.3296 57.7792 25.9721 57.3876 26.5242C56.9961 27.0664 56.4992 27.488 55.8968 27.7892C55.2945 28.0904 54.5817 28.2409 53.7585 28.2409C52.9654 28.2409 52.2425 28.1155 51.59 27.8645C50.9475 27.6135 50.3853 27.2471 49.9034 26.7652C49.4316 26.2833 49.0651 25.696 48.8041 25.0033C48.5531 24.3106 48.4276 23.5275 48.4276 22.6541C48.4276 21.7707 48.5582 20.9876 48.8192 20.3049C49.0902 19.6122 49.4617 19.0249 49.9335 18.5431C50.4054 18.0612 50.9525 17.6947 51.5749 17.4438C52.1974 17.1928 52.87 17.0673 53.5928 17.0673C54.3156 17.0673 54.923 17.1928 55.4149 17.4438C55.9069 17.6947 56.3034 18.0562 56.6046 18.528C56.9058 18.9898 57.1216 19.547 57.2521 20.1995L56.6498 19.8231L56.9208 17.248H58.0804V20.8169H56.7401C56.5895 20.2949 56.3837 19.8431 56.1227 19.4616C55.8617 19.0701 55.5455 18.7689 55.174 18.5581C54.8025 18.3473 54.3558 18.2419 53.8338 18.2419ZM64.5291 23.1812L66.6975 22.7595L68.6552 26.3586C68.7556 26.5293 68.856 26.6648 68.9564 26.7652C69.0668 26.8555 69.1873 26.9158 69.3178 26.9459C69.4483 26.976 69.5938 26.9911 69.7545 26.9911H69.89V28H66.8933L64.5291 23.1812ZM63.0684 26.8405C63.0684 26.8706 63.0985 26.8957 63.1587 26.9158C63.2189 26.9258 63.2942 26.9409 63.3846 26.9609C63.485 26.971 63.5954 26.981 63.7159 26.9911C63.8464 26.9911 63.9719 26.9911 64.0924 26.9911H64.3032V28H59.5295V26.9911H59.6952C59.9964 26.9911 60.2423 26.9559 60.4331 26.8856C60.6338 26.8154 60.7342 26.6698 60.7342 26.4489V18.8593C60.7342 18.6384 60.6338 18.4929 60.4331 18.4226C60.2423 18.3523 59.9964 18.3172 59.6952 18.3172H59.5295V17.3082H64.8905C65.7338 17.3082 66.4465 17.4287 67.0288 17.6696C67.6211 17.9005 68.0729 18.2419 68.3841 18.6936C68.6953 19.1354 68.8509 19.6725 68.8509 20.3049C68.8509 20.8571 68.7255 21.344 68.4745 21.7656C68.2235 22.1873 67.8571 22.5336 67.3752 22.8047C66.9033 23.0758 66.3261 23.2615 65.6434 23.3619C65.5631 23.402 65.4828 23.4372 65.4025 23.4673C65.3322 23.4874 65.2569 23.5125 65.1766 23.5426C65.1063 23.5627 65.026 23.5777 64.9356 23.5878H62.7521V22.5336H64.4989C64.9407 22.5336 65.3021 22.4483 65.5832 22.2776C65.8643 22.0969 66.0701 21.846 66.2006 21.5247C66.3411 21.2035 66.4114 20.822 66.4114 20.3802C66.4114 19.9485 66.3411 19.5871 66.2006 19.296C66.0701 19.0049 65.8693 18.784 65.5982 18.6334C65.3272 18.4728 64.9858 18.3925 64.5742 18.3925H63.0684V26.8405ZM73.1984 23.4974H77.3998L77.4901 24.5365H73.0779L73.1984 23.4974ZM75.0656 18.0461L75.412 18.4527L72.7616 26.6899C72.7616 26.7401 72.8068 26.7903 72.8972 26.8405C72.9976 26.8907 73.1281 26.9308 73.2887 26.9609C73.4594 26.981 73.6451 26.9911 73.8459 26.9911H74.0266V28H70.6082V26.9911H70.6835C70.9345 26.9911 71.1403 26.9409 71.3009 26.8405C71.4616 26.7401 71.5921 26.5293 71.6925 26.208L74.6139 17.248H77.1287L80.1254 26.3435C80.2158 26.6045 80.3413 26.7802 80.5019 26.8706C80.6625 26.9509 80.8683 26.9911 81.1193 26.9911H81.1946V28H76.5866V26.9911H76.7824C76.9831 26.9911 77.1689 26.986 77.3395 26.976C77.5102 26.9559 77.6457 26.9358 77.7461 26.9158C77.8465 26.8856 77.8967 26.8555 77.8967 26.8254L75.0656 18.0461ZM85.5981 26.8405C85.5981 26.8706 85.6282 26.8957 85.6885 26.9158C85.7487 26.9258 85.829 26.9409 85.9294 26.9609C86.0298 26.971 86.1402 26.981 86.2607 26.9911C86.3812 26.9911 86.5067 26.9911 86.6372 26.9911H86.9986V28H82.0593V27.0061H82.2099C82.5211 27.0061 82.7721 26.971 82.9628 26.9007C83.1636 26.8304 83.264 26.6849 83.264 26.464V18.8442C83.264 18.6234 83.1636 18.4778 82.9628 18.4075C82.7721 18.3373 82.5211 18.3021 82.2099 18.3021H82.0593V17.3082H87.4202C88.6651 17.3082 89.6339 17.5843 90.3266 18.1365C91.0293 18.6886 91.3807 19.4767 91.3807 20.5007C91.3807 21.1934 91.2151 21.7907 90.8838 22.2927C90.5525 22.7947 90.0856 23.1812 89.4833 23.4522C88.891 23.7133 88.1832 23.8438 87.36 23.8438H85.1614V22.7445H86.9986C87.4504 22.7445 87.8218 22.6642 88.1129 22.5035C88.4141 22.3329 88.64 22.0819 88.7906 21.7506C88.9412 21.4193 89.0165 21.0127 89.0165 20.5308C89.0165 20.059 88.9412 19.6675 88.7906 19.3562C88.65 19.045 88.4292 18.8141 88.128 18.6635C87.8369 18.5029 87.4755 18.4226 87.0438 18.4226H85.5981V26.8405ZM101.206 24.6118V28H92.4413V26.9911H92.6069C92.9081 26.9911 93.1541 26.9559 93.3448 26.8856C93.5456 26.8154 93.646 26.6698 93.646 26.4489V18.8593C93.646 18.6384 93.5456 18.4929 93.3448 18.4226C93.1541 18.3523 92.9081 18.3172 92.6069 18.3172H92.4413V17.3082H100.829V20.32H99.6545L99.5189 19.0701C99.4989 18.8894 99.4236 18.7539 99.2931 18.6635C99.1726 18.5631 98.9919 18.4979 98.7509 18.4678C98.51 18.4276 98.2088 18.4075 97.8474 18.4075H95.9801V26.9007H98.0281C98.3293 26.9007 98.5903 26.8907 98.8112 26.8706C99.032 26.8505 99.2127 26.8154 99.3533 26.7652C99.5039 26.715 99.6143 26.6497 99.6846 26.5694C99.7549 26.4791 99.8 26.3686 99.8201 26.2381L100.001 24.6118H101.206ZM95.6187 22.0216C96.0504 21.9915 96.4771 21.9664 96.8987 21.9464C97.3204 21.9263 97.742 21.9062 98.1636 21.8861C98.5853 21.856 99.0069 21.8309 99.4286 21.8108V23.2264C99.0069 23.1962 98.5853 23.1711 98.1636 23.1511C97.742 23.1209 97.3204 23.0958 96.8987 23.0758C96.4771 23.0456 96.0504 23.0256 95.6187 23.0155V22.0216ZM107.632 23.1812L109.8 22.7595L111.758 26.3586C111.859 26.5293 111.959 26.6648 112.059 26.7652C112.17 26.8555 112.29 26.9158 112.421 26.9459C112.551 26.976 112.697 26.9911 112.857 26.9911H112.993V28H109.996L107.632 23.1812ZM106.171 26.8405C106.171 26.8706 106.201 26.8957 106.262 26.9158C106.322 26.9258 106.397 26.9409 106.488 26.9609C106.588 26.971 106.698 26.981 106.819 26.9911C106.949 26.9911 107.075 26.9911 107.195 26.9911H107.406V28H102.632V26.9911H102.798C103.099 26.9911 103.345 26.9559 103.536 26.8856C103.737 26.8154 103.837 26.6698 103.837 26.4489V18.8593C103.837 18.6384 103.737 18.4929 103.536 18.4226C103.345 18.3523 103.099 18.3172 102.798 18.3172H102.632V17.3082H107.993C108.837 17.3082 109.549 17.4287 110.132 17.6696C110.724 17.9005 111.176 18.2419 111.487 18.6936C111.798 19.1354 111.954 19.6725 111.954 20.3049C111.954 20.8571 111.828 21.344 111.577 21.7656C111.326 22.1873 110.96 22.5336 110.478 22.8047C110.006 23.0758 109.429 23.2615 108.746 23.3619C108.666 23.402 108.586 23.4372 108.505 23.4673C108.435 23.4874 108.36 23.5125 108.28 23.5426C108.209 23.5627 108.129 23.5777 108.039 23.5878H105.855V22.5336H107.602C108.044 22.5336 108.405 22.4483 108.686 22.2776C108.967 22.0969 109.173 21.846 109.304 21.5247C109.444 21.2035 109.514 20.822 109.514 20.3802C109.514 19.9485 109.444 19.5871 109.304 19.296C109.173 19.0049 108.972 18.784 108.701 18.6334C108.43 18.4728 108.089 18.3925 107.677 18.3925H106.171V26.8405Z" fill="#1B00DF"/>
</svg>
